# xmcd
#
# Track frame offsets: 
#        150
#        13272
#        26482
#        37972
#        50595
#        66325
#        80957
#        93450
#        106770
#        121047
#        135127
#        148537
#        162690
#        177685
#        191727
#        204525
#        218452
#        231182
#
# Disc length: 3246 seconds
#
# Revision: 2
# Processed by: cddbd v1.5.2PL0 Copyright (c) Steve Scherf et al.
# Submitted via: ExactAudioCopy v0.95b2
#
DISCID=000cac12
DTITLE=Various Artist - Female Country Blues Vol. 1: 1924-1928
DYEAR=1900
DGENRE=blues
TTITLE0=Anna Lee Chisholm - Georgia Sam Blues
TTITLE1=Anna Lee Chisholm - Cool Kind  Daddy Blues
TTITLE2=Virginia Childs - Down Hearted Blues
TTITLE3=Virginia Childs - The St. Louis Blues
TTITLE4=Eva Parker - You Got Yourself Another Woman
TTITLE5=Eva Parker - I Seen My Pretty Papa Standing On A Hill
TTITLE6=Eva Parker - You're Going To Leave The Old Home, Jim
TTITLE7=Eva Parker - Careless Love
TTITLE8=Cora Perkins - When I Rise Blues
TTITLE9=Cora Perkins - Today Blues
TTITLE10=Lulu Jackson - You're Going To Leave The Old Home Jim
TTITLE11=Lulu Jackson - Careless Love Blues
TTITLE12=Lulu Jackson - After You've Had Your Way
TTITLE13=Lulu Jackson - Little By Little You're Breaking My Heart
TTITLE14=Lulu Jackson - Lost Lover Blues
TTITLE15=Lulu Jackson - Little Rosewood Casket
TTITLE16=Lulu Jackson - Blue Ridge Blues
TTITLE17=Lulu Jackson - You're Going To Leave The Old Home Jim Part 2
EXTD=
EXTT0=
EXTT1=
EXTT2=
EXTT3=
EXTT4=
EXTT5=
EXTT6=
EXTT7=
EXTT8=
EXTT9=
EXTT10=
EXTT11=
EXTT12=
EXTT13=
EXTT14=
EXTT15=
EXTT16=
EXTT17=
PLAYORDER=
